<?xml version="1.0" encoding="UTF-8"?>
<svg id="_레이어_1" data-name="레이어 1" xmlns="http://www.w3.org/2000/svg" viewBox="0 0 19 19">
  <defs>
    <style>
      .cls-1 {
        fill: #cacfd9;
      }
    </style>
  </defs>
  <path class="cls-1" d="m7.48,11.97c-2.49,0-4.5-2.01-4.5-4.5S4.99,2.97,7.48,2.97s4.5,2.01,4.5,4.5-2.01,4.5-4.5,4.5Zm6,0h-.79l-.28-.27c.62-.73,1.08-1.58,1.34-2.5s.3-1.89.14-2.84c-.47-2.78-2.79-5-5.59-5.34-.98-.12-1.98-.02-2.92.3-.94.32-1.79.85-2.49,1.55-.7.7-1.23,1.55-1.55,2.49-.32.94-.42,1.94-.3,2.92.34,2.8,2.56,5.12,5.34,5.59.94.16,1.91.11,2.84-.14.92-.26,1.78-.71,2.5-1.34l.27.28v.79l4.25,4.25c.41.41,1.08.41,1.49,0,.41-.41.41-1.08,0-1.49l-4.24-4.26Z"/>
</svg>