<?xml version="1.0" encoding="UTF-8"?>
<svg id="_레이어_1" data-name="레이어 1" xmlns="http://www.w3.org/2000/svg" viewBox="0 0 81 22">
  <path d="m12.19,11.54h5.39l-1.66-4.89-3.74,4.89h0Zm-.95.95H2.94L12.97,1h8.28l5.15,11.49h-8.3l-.69,3.19h8.44l-1.11,5.32H1l1.11-5.32h8.44l.69-3.19Z"/>
  <path d="m37.22,7.88h8.13l.47-2.27h-8.13l-.47,2.27Zm-.35,4.61h-7.5l2.44-11.49h21.85l-2.44,11.49h-7.5l-.69,3.19h8.44l-1.11,5.32h-23.74l1.11-5.32h8.44l.69-3.19Z"/>
  <path d="m71.51,4.12h.97l.66-3.12h6.86l-2.91,13.73h-6.86l1.21-5.65h-1.68l.64-3.07h-1.56l1.49,5.53h-6.86l-.78-3.1-2.06,3.1h-6.83l3.85-5.53h-2.25l1.06-5.01h15.7l-.66,3.12h0Zm-11.28,11.56h16.88l-1.11,5.32h-23.74l1.8-8.51h6.86l-.69,3.19h0Z"/>
</svg>