<svg width="60" height="60" viewBox="0 0 60 60" fill="none" xmlns="http://www.w3.org/2000/svg">
<rect width="60" height="60" fill="#F1F3F6"/>
<path d="M45 41.6667V18.3333C45 16.5 43.5 15 41.6667 15H18.3333C16.5 15 15 16.5 15 18.3333V41.6667C15 43.5 16.5 45 18.3333 45H41.6667C43.5 45 45 43.5 45 41.6667ZM24.8333 33.3L28.3333 37.5167L33.5 30.8667C33.8333 30.4333 34.5 30.4333 34.8333 30.8833L40.6833 38.6833C40.7762 38.8071 40.8327 38.9544 40.8466 39.1085C40.8605 39.2626 40.8312 39.4176 40.762 39.556C40.6928 39.6944 40.5864 39.8108 40.4548 39.8922C40.3231 39.9736 40.1714 40.0167 40.0167 40.0167H20.0333C19.3333 40.0167 18.95 39.2167 19.3833 38.6667L23.5333 33.3333C23.85 32.9 24.4833 32.8833 24.8333 33.3Z" fill="#CACFD9"/>
</svg>
